<?xml version="1.0" encoding="utf-8"?>
<!-- Generator: Adobe Illustrator 28.2.0, SVG Export Plug-In . SVG Version: 6.00 Build 0)  -->
<svg version="1.1" id="Capa_1" xmlns="http://www.w3.org/2000/svg" xmlns:xlink="http://www.w3.org/1999/xlink" x="0px" y="0px"
	 viewBox="0 0 1363.6 405" style="enable-background:new 0 0 1363.6 405;" xml:space="preserve">
<style type="text/css">
	.st0{fill:#33333D;}
	.st1{fill:#F18F05;}
	.st2{fill:#55B047;}
</style>
<path class="st0" d="M1348.8,276.9c-9.5-9.6-23.1-17.5-40.3-23.4c-16.8-5.8-37.1-11.5-60.3-16.9c-16.2-4.3-30-8.4-40.9-12.1
	c-10.4-3.6-18.3-8.3-23.4-13.9c-4.9-5.4-7.3-13.2-7.3-23.1c0-12.7,3.4-22.9,10.2-30.3c6.9-7.6,16.3-13.2,27.8-16.6
	c11.8-3.5,24.6-5.3,37.9-5.3c17.8,0,34.3,2.8,49.1,8.2c14.6,5.4,26.6,13.7,35.6,24.8l2.7,3.3l20.3-22.9l-1.8-2.4
	c-9.5-12.4-23.4-22.5-41.2-30c-17.7-7.4-38.7-11.2-62.3-11.2c-20.5,0-39.5,3.1-56.4,9.2c-17.2,6.2-31,15.7-41.1,28.3
	c-10.2,12.7-15.4,28.9-15.4,48.2c0,15.6,3.7,28.3,11.1,37.6c7.2,9.2,18.2,16.7,32.7,22.3c14,5.5,31.4,10.8,51.7,15.9
	c19.7,4.7,36.6,9.1,50.4,13.3c13.3,4,23.7,9.2,30.7,15.5c6.7,6,9.9,14.4,9.9,25.8c0,16.9-7.2,29.7-22.1,39.2
	c-15.2,9.7-35.4,14.6-60.1,14.6c-19.3,0-37.3-3.3-53.6-9.8c-16.3-6.5-32.7-17.2-48.7-31.7l-3-2.8l-17.2,25l2.1,2.2
	c15.5,15.9,33.9,28,54.5,35.7c20.5,7.8,43.1,11.7,67,11.7c34.6,0,62.8-7.7,83.9-22.9c21.5-15.5,32.4-37,32.4-63.8
	C1363.6,300.7,1358.6,286.7,1348.8,276.9L1348.8,276.9z"/>
<path class="st0" d="M734.9,0c-8.3,0-15,6.7-15,15v150c-27.4-36.4-70.9-60-120-60c-82.8,0-150,67.1-150,150s67.2,150,150,150
	c49.1,0,92.6-23.6,120-60v60h30V15C749.9,6.7,743.2,0,734.9,0z M600,375c-66.3,0-120-53.7-120-120s53.7-120,120-120
	s120,53.7,120,120S666.2,375,600,375z"/>
<path class="st0" d="M150,105C67.2,105,0,172.1,0,255s67.2,150,150,150c48.6,0,91.8-23.2,119.2-59c0.1-0.1,0.1-0.1,0.2-0.2
	c0.1-0.1,0.2-0.2,0.2-0.3h0c1.9-2.5,3-5.6,3-9c0-8.3-6.7-15-15-15c-4.9,0-9.3,2.4-12,6l0,0C223.8,356.3,189.1,375,150,375
	c-61.2,0-111.7-45.8-119.1-105H150l0,0h149.2c0.5-4.9,0.7-9.9,0.7-15C300,172.1,232.8,105,150,105L150,105z M30.9,240
	c7.4-59.2,57.9-105,119.1-105S261.7,180.8,269,240L30.9,240L30.9,240z"/>
<circle class="st1" cx="898.5" cy="374.7" r="30.3"/>
<ellipse transform="matrix(0.2298 -0.9732 0.9732 0.2298 656.2922 1132.2408)" class="st1" cx="1043.5" cy="151.5" rx="22.7" ry="22.7"/>
<circle class="st1" cx="811.9" cy="269.7" r="15.1"/>
<path class="st0" d="M865.1,362.1c2.5-6.6,6.7-12,11.9-15.9c-23.5-16.5-40-40.6-47.2-67.5c-4.6,8.9-15.3,13.2-25,9.6
	c-1.6-0.6-3.1-1.4-4.4-2.3c9.4,35.1,31.3,66.5,62.5,87.2C863.1,369.5,863.8,365.8,865.1,362.1L865.1,362.1z"/>
<path class="st0" d="M1017.8,142.1c3.2-8.6,10.3-14.6,18.5-17c-11-8-23.2-14.7-36.6-19.7c-78.3-29.3-165.5,10.5-194.8,88.8
	c-7.8,20.9-10.7,42.4-9.3,63.4c5.2-7.1,14.7-10.2,23.3-6.9c2.7,1,5,2.5,6.9,4.3c-1.1-16.6,1.3-33.6,7.5-50.1
	c23.4-62.7,93.2-94.4,155.8-71c9.9,3.7,19,8.5,27.2,14.3C1016.6,146,1017.1,144,1017.8,142.1L1017.8,142.1z"/>
<path class="st0" d="M1070.4,159.8c-0.2,0.6-0.3,1.1-0.6,1.6c-3.8,10.1-12.8,16.6-22.8,17.8c21.2,31.4,27.3,72.1,13.1,110.2
	c-19.9,53.2-73.3,84.2-127.3,77.9c1.3,6.3,0.9,13-1.5,19.4c-1.4,3.8-3.5,7.2-5.9,10.2c68.9,9.9,137.8-29,163.1-96.9
	C1106.7,251.5,1098.2,199.4,1070.4,159.8L1070.4,159.8z"/>
<circle class="st2" cx="1014.5" cy="196.1" r="7.6"/>
<circle class="st2" cx="993.8" cy="228" r="7.6"/>
<circle class="st2" cx="977.3" cy="185.4" r="7.6"/>
<circle class="st2" cx="924.4" cy="212.4" r="7.6"/>
<circle class="st2" cx="871.5" cy="239.3" r="7.6"/>
<circle class="st2" cx="931.6" cy="323.7" r="7.6"/>
<circle class="st2" cx="973.1" cy="259.9" r="7.6"/>
<circle class="st2" cx="952.3" cy="291.8" r="7.6"/>
<g>
	<path d="M360,88.4L331,140.9l26.2,14.5l29.1-52.5C377.5,98.1,368.8,93.3,360,88.4z"/>
	<path class="st0" d="M390,105L390,105L390,105L390,105c-10-5.5-19.9-11-29.9-16.5c0,5.5,0,11-0.1,16.5l0,0v300h30L390,105L390,105
		L390,105z"/>
</g>
<g id="g11">
	<path id="path1" class="st1" d="M66.7,83.8v-75h48.8v4.9H72v29.8h36.9V48H72v35.7H66.7z"/>
	<path id="path2" class="st1" d="M118.5,60.5V28.8h5.3v30.9c0,6.9,1.2,11.9,3.4,15.2c2.3,3.3,5.7,5,10.5,5c3.2,0,6-0.7,8.9-2
		s5.3-3.3,7.6-5.7c2.1-2.4,3.9-5.4,4.9-8.8V28.8h5.3v47.9c0,0.9,0.1,1.4,0.6,1.9s1,0.7,1.6,0.7v4.3c-0.7,0-1.3,0.1-1.6,0.1
		c-0.4,0-0.7,0-1-0.1c-1.1-0.1-2.1-0.7-3-1.6s-1.1-2-1.3-3.2l-0.1-8.2c-2.4,4.3-5.7,7.8-9.9,10.3c-4.2,2.4-8.8,3.7-13.6,3.7
		c-5.7,0-10.2-2-13.1-6.2C120,74.6,118.5,68.5,118.5,60.5L118.5,60.5L118.5,60.5z"/>
	<path id="path3" class="st1" d="M200.2,81.6c-0.3,0.1-1,0.4-2.1,1c-1,0.6-2.4,1.2-4,1.6s-3.4,0.7-5.4,0.7c-1.9,0-3.7-0.4-5.3-1.2
		c-1.7-0.7-3-1.9-4-3.3c-1-1.4-1.4-3.3-1.4-5.4V33.4h-7.8v-4.3h7.8V10.3h5.3v18.8h12.8v4.3h-12.8v40.5c0.1,2,0.9,3.6,2.1,4.6
		s2.9,1.6,4.6,1.6c2.1,0,4-0.4,5.7-1.2c1.6-0.7,2.6-1.2,2.9-1.4L200.2,81.6L200.2,81.6z"/>
	<path id="path4" class="st1" d="M203.8,60.5V28.8h5.3v30.9c0,6.9,1.1,11.9,3.4,15.2c2.3,3.3,5.7,5,10.5,5c3.2,0,6-0.7,8.9-2
		s5.3-3.3,7.6-5.7c2.1-2.4,3.9-5.4,4.9-8.8V28.8h5.3v47.9c0,0.9,0.1,1.4,0.6,1.9s1,0.7,1.6,0.7v4.3c-0.7,0-1.3,0.1-1.6,0.1
		c-0.4,0-0.7,0-1-0.1c-1.1-0.1-2.1-0.7-3-1.6s-1.1-2-1.3-3.2l-0.1-8.2c-2.4,4.3-5.7,7.8-9.9,10.3c-4.2,2.4-8.8,3.7-13.6,3.7
		c-5.7,0-10.2-2-13.1-6.2C205.3,74.6,203.8,68.5,203.8,60.5L203.8,60.5L203.8,60.5z"/>
	<path id="path5" class="st1" d="M287,33.5c-4.9,0.1-9.2,1.6-12.9,4.5c-3.7,2.7-6.3,6.6-7.8,11.5v34.3h-5.3V28.9h5v13.5
		c1.9-3.9,4.5-7,7.6-9.5c3.2-2.4,6.5-3.9,10-4.2c0.7,0,1.3-0.1,1.9-0.1h1.4L287,33.5L287,33.5z"/>
	<path id="path6" class="st1" d="M313,84.8c-3.9,0-7.5-0.7-10.8-2.3s-6.2-3.6-8.6-6.2c-2.4-2.6-4.3-5.7-5.7-9.2s-2-7.2-2-11
		c0-5.2,1.1-9.9,3.4-14.1c2.3-4.2,5.6-7.6,9.6-10.2c4-2.6,8.6-3.9,13.8-3.9s9.8,1.3,13.8,3.9c4,2.6,7.2,6,9.6,10.3
		c2.3,4.3,3.6,8.9,3.6,13.9v1.3c0,0.4,0,0.7-0.1,1h-48.2c0.3,4.2,1.4,7.9,3.4,11.2s4.7,6,7.9,7.9s6.7,2.9,10.5,2.9s7.5-1,10.8-3
		c3.4-2,5.7-4.4,7-7.6l4.6,1.3c-1,2.6-2.7,4.9-5,7c-2.3,2-5,3.6-8,4.9C319.6,84.2,316.4,84.8,313,84.8L313,84.8z M291.2,54.3h43.5
		c-0.3-4.3-1.4-8-3.4-11.3s-4.6-5.9-7.8-7.8s-6.7-2.9-10.6-2.9s-7.5,1-10.6,2.9s-5.7,4.5-7.8,7.8S291.5,50.2,291.2,54.3L291.2,54.3
		L291.2,54.3z"/>
	<path id="path7" class="st1" d="M428.9,84.8c-4.3,0-8.5-0.7-12.2-2.2s-7-3.7-9.8-6.7l2.4-3.7c3,2.9,6,5,9.2,6.3
		c3.2,1.3,6.5,2,10.2,2c4.7,0,8.6-1,11.5-3s4.5-4.7,4.5-8.2c0-2.4-0.7-4.2-2-5.6c-1.4-1.3-3.3-2.3-5.9-3.2c-2.6-0.9-5.7-1.7-9.3-2.6
		c-3.7-1-6.9-2-9.5-3s-4.5-2.4-5.7-4.2c-1.3-1.7-1.9-4-1.9-6.9c0-3.6,0.9-6.6,2.7-8.9s4.2-4.2,7.3-5.3c3-1.1,6.5-1.7,10.2-1.7
		c4.3,0,8,0.7,11.2,2.1s5.6,3.3,7.3,5.6l-2.9,3.4c-1.7-2.3-4-3.9-6.9-5s-5.9-1.6-9.3-1.6c-2.6,0-4.9,0.3-7.2,1
		c-2.3,0.7-4,1.9-5.5,3.4s-2,3.7-2,6.3c0,2.2,0.6,3.7,1.6,4.9s2.6,2.2,4.6,2.9c2,0.7,4.6,1.6,7.6,2.3c4.3,1,8,2.2,11,3.3
		c3.2,1.2,5.5,2.6,7.2,4.3s2.6,4.3,2.6,7.5c0,5-1.9,8.9-5.7,11.8C440.3,83.3,435.2,84.7,428.9,84.8L428.9,84.8L428.9,84.8z"/>
	<path id="path8" class="st1" d="M456.9,16.3V6.6h5.3v9.8L456.9,16.3L456.9,16.3z M456.9,83.8v-55h5.3v55L456.9,83.8L456.9,83.8z"/>
	<path id="path9" class="st1" d="M495.7,84.8c-3.7,0-7.2-0.7-10.5-2.3c-3.2-1.6-5.9-3.7-8.2-6.5s-4-5.7-5.5-9c-1.3-3.3-2-6.7-2-10.5
		s0.6-7.3,1.9-10.8s3-6.5,5.3-9.2c2.3-2.6,5-4.7,8-6.3c3.2-1.6,6.6-2.3,10.3-2.3c4.7,0,8.9,1.3,12.5,3.7s6.6,5.4,9,9V28.8h4.9v56
		c0,4.9-1.2,9-3.6,12.5c-2.4,3.4-5.6,5.9-9.5,7.6c-4,1.7-8.2,2.4-12.8,2.4c-6.5,0-11.5-1.2-15.2-3.4s-6.9-5.4-9.2-9.2l3.6-2.4
		c2.1,3.7,5.2,6.3,8.9,8.2c3.7,1.7,7.8,2.6,11.9,2.6c3.7,0,7.2-0.7,10.3-2s5.6-3.4,7.5-6c1.9-2.7,2.9-6,2.9-9.9V73
		c-2.2,3.6-5.2,6.5-8.9,8.6C503.7,83.7,499.8,84.8,495.7,84.8L495.7,84.8L495.7,84.8z M497,80.3c2.3,0,4.6-0.4,6.7-1.3s4.2-2,6-3.4
		s3.3-3,4.6-4.9c1.3-1.9,1.9-3.6,2.2-5.3V47.3c-1-2.9-2.7-5.3-4.9-7.6c-2.1-2.2-4.6-3.9-7.2-5.2c-2.7-1.3-5.5-1.9-8.2-1.9
		c-3.3,0-6.3,0.7-8.9,2.2c-2.6,1.4-4.9,3.3-6.6,5.6s-3.2,4.9-4.2,7.8s-1.4,5.7-1.4,8.5c0,3.2,0.6,6.2,1.7,9c1.1,2.9,2.7,5.3,4.7,7.6
		c2,2.2,4.3,4,7,5.2C491.1,79.7,493.9,80.3,497,80.3L497,80.3L497,80.3z"/>
	<path id="path10" class="st1" d="M577.9,83.8h-5.3V53.2c0-6.7-1.2-11.8-3.4-15.2s-5.7-5.2-10.2-5.2c-2.9,0-5.7,0.7-8.6,2.2
		s-5.5,3.4-7.5,6c-2,2.6-3.6,5.5-4.6,8.6v33.9H533V6.3h5.3v35.4c2.3-4.3,5.5-7.8,9.5-10.2c4-2.4,8.3-3.7,12.8-3.7
		c3.2,0,5.7,0.6,7.9,1.7s4,2.7,5.5,4.9s2.4,4.6,3.2,7.6s1,6.3,1,10v31.7L577.9,83.8L577.9,83.8z"/>
	<path id="path11" class="st1" d="M612.5,81.6c-0.3,0.1-1,0.4-2.2,1c-1,0.6-2.4,1.2-4,1.6s-3.4,0.7-5.5,0.7c-1.9,0-3.7-0.4-5.3-1.2
		c-1.7-0.7-3-1.9-4-3.3c-1-1.4-1.4-3.3-1.4-5.4V33.4h-7.8v-4.3h7.8V10.3h5.3v18.8h12.8v4.3h-12.8v40.5c0.1,2,0.9,3.6,2.2,4.6
		s2.9,1.6,4.6,1.6c2.2,0,4-0.4,5.7-1.2c1.6-0.7,2.6-1.2,2.9-1.4L612.5,81.6L612.5,81.6z"/>
</g>
<circle id="circle29" class="st2" cx="374.7" cy="54.1" r="15.4"/>
</svg>
